<svg width="18" height="18" viewBox="0 0 18 18" fill="none" xmlns="http://www.w3.org/2000/svg">
<g clip-path="url(#clip0)">
<path d="M9.00002 6.54547C7.64591 6.54547 6.54547 7.64591 6.54547 9.00002C6.54547 10.3541 7.64591 11.4546 9.00002 11.4546C10.3541 11.4546 11.4546 10.3541 11.4546 9.00002C11.4546 7.64591 10.3541 6.54547 9.00002 6.54547Z" fill="#BABABA"/>
<path d="M9.00002 2.86365C4.90909 2.86365 1.41547 5.40817 0 9.00001C1.41547 12.5918 4.90909 15.1364 9.00002 15.1364C13.095 15.1364 16.5846 12.5918 18 9.00001C16.5846 5.40817 13.095 2.86365 9.00002 2.86365ZM9.00002 13.0909C6.74184 13.0909 4.90909 11.2582 4.90909 8.99998C4.90909 6.74179 6.74184 4.90909 9.00002 4.90909C11.2582 4.90909 13.0909 6.74183 13.0909 9.00001C13.0909 11.2582 11.2582 13.0909 9.00002 13.0909Z" fill="#BABABA"/>
</g>
<defs>
<clipPath id="clip0">
<rect width="18" height="18" fill="white"/>
</clipPath>
</defs>
</svg>
